<?xml version="1.0" encoding="UTF-8" ?>
<!DOCTYPE svg PUBLIC "-//W3C//DTD SVG 1.1//EN" "http://www.w3.org/Graphics/SVG/1.1/DTD/svg11.dtd">
<svg width="300pt" height="72pt" viewBox="0 0 300 72" version="1.1" xmlns="http://www.w3.org/2000/svg">
<g id="#ffffffff">
<path fill="#ffffff" opacity="1.00" d=" M 0.00 41.62 C 1.12 51.60 5.56 61.20 12.52 68.45 C 14.08 70.06 16.06 71.19 18.13 72.00 L 0.00 72.00 L 0.00 41.62 Z" />
</g>
<g id="#000000ff">
<path fill="#000000" opacity="1.00" d=" M 44.23 0.00 L 45.85 0.00 C 46.14 8.51 39.17 17.24 30.30 17.09 C 30.15 8.92 36.27 1.57 44.23 0.00 Z" />
<path fill="#000000" opacity="1.00" d=" M 242.44 4.37 C 246.15 1.90 251.57 5.67 250.78 10.01 C 250.64 13.10 247.67 14.76 244.99 15.41 C 243.55 14.78 241.90 14.41 240.85 13.15 C 238.36 10.66 239.23 5.84 242.44 4.37 Z" />
<path fill="#000000" opacity="1.00" d=" M 70.55 4.80 C 74.48 4.81 78.41 4.82 82.35 4.77 C 89.75 22.44 96.87 40.23 104.12 57.96 C 111.57 40.32 118.56 22.49 125.91 4.81 C 129.85 4.80 133.78 4.80 137.71 4.82 C 137.76 26.84 137.72 48.87 137.73 70.89 C 134.63 70.88 131.53 70.87 128.42 70.96 C 128.23 54.86 128.57 38.76 128.25 22.66 C 127.56 23.91 126.92 25.18 126.35 26.49 C 120.31 41.30 114.16 56.07 108.09 70.87 C 105.43 70.90 102.76 70.91 100.10 70.75 C 93.74 54.51 86.76 38.51 80.32 22.31 C 79.91 38.47 80.24 54.65 80.15 70.82 C 76.94 70.90 73.74 70.89 70.53 70.90 C 70.53 48.86 70.50 26.83 70.55 4.80 Z" />
<path fill="#000000" opacity="1.00" d=" M 16.32 17.36 C 21.52 16.44 26.08 19.58 31.02 20.43 C 35.69 19.44 40.03 16.73 44.95 17.15 C 50.43 17.03 55.51 19.86 58.97 23.97 C 53.71 27.38 49.90 33.43 51.04 39.87 C 51.41 45.81 55.96 50.26 60.90 52.97 C 58.24 59.67 54.59 66.56 48.50 70.73 C 42.38 74.61 36.26 67.59 29.89 69.20 C 26.72 69.81 23.77 71.19 20.65 72.00 L 18.13 72.00 C 16.06 71.19 14.08 70.06 12.52 68.45 C 5.56 61.20 1.12 51.60 0.00 41.62 L 0.00 36.26 C 0.55 27.32 7.14 18.57 16.32 17.36 Z" />
<path fill="#000000" opacity="1.00" d=" M 201.38 25.43 C 208.49 21.03 218.04 20.84 225.43 24.70 C 230.01 27.12 232.78 32.03 233.07 37.14 C 230.03 37.16 227.00 37.16 223.97 37.14 C 223.16 35.34 222.67 33.26 221.13 31.90 C 218.40 29.46 214.43 29.17 210.99 29.83 C 208.08 30.48 204.84 32.75 205.20 36.10 C 204.91 38.73 207.26 40.49 209.45 41.29 C 214.91 43.26 220.84 43.63 226.21 45.88 C 229.14 47.09 232.01 49.04 233.19 52.11 C 235.67 57.51 233.51 64.29 228.83 67.76 C 225.61 70.21 221.65 71.45 217.70 72.00 L 210.46 72.00 C 205.90 71.17 201.18 69.57 198.02 66.01 C 195.59 63.55 194.72 60.13 194.04 56.86 C 197.30 56.83 200.56 56.90 203.82 57.17 C 204.93 60.05 206.68 63.13 209.94 63.88 C 214.15 64.78 219.43 65.00 222.73 61.75 C 225.15 59.39 224.56 54.96 221.47 53.47 C 214.20 50.06 204.97 50.94 198.85 45.09 C 193.10 39.68 194.87 29.45 201.38 25.43 Z" />
<path fill="#000000" opacity="1.00" d=" M 266.43 25.31 C 273.53 21.06 282.84 20.84 290.18 24.62 C 295.71 27.48 299.32 33.30 299.99 39.43 C 296.88 39.48 293.78 39.50 290.67 39.53 C 289.57 37.08 288.72 34.29 286.45 32.63 C 283.27 30.13 278.83 29.87 275.04 30.88 C 270.24 32.42 267.50 37.33 266.67 42.04 C 265.94 47.84 266.04 54.32 269.73 59.18 C 273.47 64.32 281.44 65.14 286.45 61.46 C 288.70 59.85 289.58 57.11 290.66 54.69 C 293.77 54.71 296.88 54.70 299.99 54.74 C 299.38 64.24 290.74 71.31 281.59 72.00 L 276.35 72.00 C 271.00 71.32 265.65 69.12 262.07 64.97 C 257.56 59.79 255.91 52.71 256.24 45.97 C 256.11 38.04 259.52 29.61 266.43 25.31 Z" />
<path fill="#000000" opacity="1.00" d=" M 146.66 22.80 C 149.95 22.80 153.24 22.80 156.53 22.78 C 156.83 33.54 156.20 44.33 156.85 55.07 C 157.26 63.39 168.43 65.85 174.13 61.14 C 177.18 58.74 178.55 54.76 178.45 50.97 C 178.49 41.58 178.39 32.18 178.49 22.79 C 181.80 22.80 185.11 22.80 188.42 22.79 C 188.44 38.93 188.48 55.06 188.42 71.19 C 185.19 71.21 181.97 71.12 178.76 70.79 C 178.76 68.18 178.75 65.57 178.76 62.96 C 176.27 68.00 171.35 71.59 165.67 72.00 L 161.39 72.00 C 157.04 71.38 152.65 69.46 150.05 65.80 C 147.30 62.16 146.59 57.46 146.64 53.01 C 146.66 42.94 146.64 32.87 146.66 22.80 Z" />
<path fill="#000000" opacity="1.00" d=" M 240.21 22.79 C 243.36 22.81 246.51 22.82 249.65 22.72 C 249.92 24.13 250.15 25.55 250.18 26.99 C 250.12 41.61 250.19 56.22 250.14 70.84 C 246.82 70.90 243.50 70.89 240.18 70.89 C 240.19 54.86 240.13 38.83 240.21 22.79 Z" />
</g>
</svg>
