<?xml version="1.0" encoding="utf-8"?>
<!-- Generator: Adobe Illustrator 18.0.0, SVG Export Plug-In . SVG Version: 6.00 Build 0)  -->
<!DOCTYPE svg PUBLIC "-//W3C//DTD SVG 1.1//EN" "http://www.w3.org/Graphics/SVG/1.1/DTD/svg11.dtd">
<svg version="1.1" id="Layer_1" xmlns="http://www.w3.org/2000/svg" xmlns:xlink="http://www.w3.org/1999/xlink" x="0px" y="0px"
	 viewBox="150.6 870.7 512 209.7" enable-background="new 150.6 870.7 512 209.7" xml:space="preserve">
<g>
	<polygon fill="#F8991C" points="586.9,951.4 662.6,904.2 662.6,917 586.9,964.4 511.1,917 511.1,904.2 	"/>
	<path fill="#F8991C" d="M586.9,892.2c-17.1,0-32.1,8.6-40.7,21.9l0,0c0.7-0.7,1.1-1.1,1.8-1.6c21.3-17.7,52-13.7,68.7,8.6l11.1-7.1
		l0,0C619,901.1,603.9,892.2,586.9,892.2"/>
	<path fill="#F8991C" d="M586.9,914.1c-9.3,0-17.5,4.7-22.4,11.5c4-2.9,8.6-4.4,13.5-4.4c8.2,0,15.5,4.2,20.4,11.3l10.6-6.6l0,0
		C604.4,918.6,596.2,914.1,586.9,914.1"/>
	<path fill="#F8991C" d="M535.7,894.9c31.2-24.6,75.3-17.9,98.8,14.8l0.2,0.2l11.5-7.1l0,0c-12.6-19.3-34.5-32.1-59.3-32.1
		c-24.6,0-46.5,12.6-59.3,32.1C529.9,900.2,532.8,897.1,535.7,894.9"/>
</g>
<g>
	<path fill="#2D2D2D" d="M169.2,1060.3c-0.7,1.1-1.6,2-2.9,2.7c-1.3,0.7-2.7,1.1-4.4,1.1c-1.1,0-2-0.2-3.1-0.4
		c-0.9-0.2-1.8-0.7-2.2-1.3c-0.7-0.7-1.1-1.1-1.6-2c-0.4-0.9-0.7-1.8-0.7-2.7c0-1.8,0.4-3.1,1.3-4c0.9-0.9,2-1.6,3.5-2
		c1.3-0.4,3.1-0.7,4.7-0.9c1.8-0.2,3.5-0.2,5.1-0.2v-1.3c0-1.6-0.4-2.9-1.3-3.8c-0.9-0.9-2.2-1.3-3.8-1.3s-3.1,0.2-3.8,1.1
		s-1.3,1.6-1.6,2.9c-0.4,0-1.1-0.2-1.3-0.2s-1.1,0-1.3,0c0.2-2,1.1-3.5,2.7-4.7c1.3-1.1,3.5-1.6,6-1.6c2.7,0,4.7,0.7,6,2
		c1.3,1.3,2,3.3,2,6v13.7h-2L169.2,1060.3z M169,1052.8c-1.8,0-3.5,0.2-5.1,0.2c-1.3,0.2-2.7,0.2-3.5,0.7c-0.9,0.4-1.8,0.7-2.2,1.3
		c-0.4,0.7-0.7,1.3-0.7,2.4c0,1.3,0.4,2.2,1.1,2.9c0.7,0.7,1.8,1.1,3.3,1.1c1.1,0,2.2-0.2,3.1-0.7c0.9-0.2,1.6-0.9,2.2-1.3
		c0.7-0.7,1.1-1.3,1.3-2.2s0.4-1.8,0.4-2.7L169,1052.8L169,1052.8z"/>
	<path fill="#2D2D2D" d="M179.2,1042.4h1.8l1.1,3.5c0.9-1.3,1.8-2.2,3.1-3.1c1.3-0.7,2.7-1.1,4-1.1c2.4,0,4.2,0.7,5.5,2
		c1.1,1.3,1.8,3.3,1.8,5.8v14h-2.9v-13.5c0-1.8-0.4-3.3-1.1-4.2s-2-1.3-3.5-1.3c-1.1,0-2.2,0.2-3.1,0.7c-0.9,0.4-1.6,1.1-2,1.8
		c-0.7,0.7-0.9,1.8-1.1,2.7c-0.2,1.1-0.2,2.2-0.2,3.3v10.4h-3.1L179.2,1042.4L179.2,1042.4z"/>
	<path fill="#2D2D2D" d="M380.9,1056.5c-0.2,2.2-1.1,4.2-2.7,5.5c-1.6,1.3-3.5,2.2-6,2.2c-1.6,0-3.1-0.2-4.2-0.9
		c-1.1-0.7-2.2-1.3-3.1-2.2c-0.9-1.1-1.3-2.2-1.8-3.5c-0.4-1.3-0.7-2.9-0.7-4.4c0-1.6,0.2-3.1,0.7-4.4c0.4-1.3,1.1-2.7,1.8-3.5
		s1.8-1.8,3.1-2.4c1.1-0.7,2.7-0.9,4.2-0.9c1.1,0,2.2,0.2,3.3,0.7c1.1,0.4,1.8,0.9,2.7,1.6c0.7,0.7,1.3,1.3,1.8,2.2s0.7,1.8,0.7,3.1
		h-3.1c-0.2-1.3-0.7-2.7-1.6-3.5s-2.2-1.3-3.8-1.3c-1.3,0-2.2,0.2-3.1,0.7c-0.9,0.4-1.3,1.1-2,1.8c-0.4,0.7-0.9,1.8-1.1,2.7
		s-0.2,2-0.2,3.1c0,1.1,0.2,2.2,0.2,3.1s0.7,1.8,1.1,2.7c0.4,0.9,1.1,1.3,2,1.8c0.9,0.4,1.8,0.7,3.1,0.7c1.8,0,3.1-0.4,3.8-1.3
		c0.9-1.1,1.3-2.2,1.8-3.5h3.1L380.9,1056.5L380.9,1056.5z"/>
	<path fill="#2D2D2D" d="M395.1,1064.1c-1.6,0-3.1-0.2-4.2-0.9c-1.1-0.7-2.2-1.3-3.1-2.2c-0.9-1.1-1.3-2.2-1.8-3.5
		c-0.4-1.3-0.7-2.9-0.7-4.4s0.2-3.1,0.7-4.4c0.4-1.3,1.1-2.7,1.8-3.5c0.7-1.1,1.8-1.8,3.1-2.2c1.1-0.7,2.7-0.9,4.2-0.9
		s3.1,0.2,4.2,0.9c1.1,0.7,2.2,1.3,3.1,2.2c0.7,1.1,1.3,2.2,1.8,3.5c0.4,1.3,0.7,2.9,0.7,4.4s-0.2,3.1-0.7,4.4
		c-0.4,1.3-1.1,2.7-1.8,3.5c-0.9,1.1-1.8,1.8-3.1,2.2C398,1063.8,396.6,1064.1,395.1,1064.1z M395.1,1061.4c1.3,0,2.2-0.2,3.1-0.7
		c0.9-0.4,1.6-1.1,2-1.8c0.4-0.7,0.9-1.8,1.1-2.7c0.2-1.1,0.2-2,0.2-3.1c0-1.1-0.2-2.2-0.2-3.1c-0.2-1.1-0.7-1.8-1.1-2.7
		s-1.1-1.3-2-1.8c-0.9-0.4-1.8-0.7-3.1-0.7s-2.2,0.2-3.1,0.7c-0.9,0.4-1.3,1.1-2,1.8c-0.7,0.7-0.9,1.8-1.1,2.7
		c-0.2,1.1-0.2,2-0.2,3.1c0,1.1,0.2,2.2,0.2,3.1c0.2,1.1,0.7,2,1.1,2.7c0.7,0.7,1.1,1.3,2,1.8
		C392.6,1061.2,393.8,1061.4,395.1,1061.4z"/>
	<path fill="#2D2D2D" d="M437.2,1063.6v-13.7c0-1.8-0.2-3.3-1.1-4c-0.7-0.9-1.8-1.3-3.3-1.3c-0.7,0-1.3,0.2-2.2,0.4
		c-0.7,0.2-1.3,0.7-1.8,1.3c-0.7,0.7-1.1,1.3-1.3,2c-0.2,0.7-0.4,1.6-0.4,2.7v12.6h-3.1v-13.7c0-1.8-0.2-3.1-1.1-4
		c-0.7-0.9-1.8-1.3-3.3-1.3c-0.7,0-1.6,0.2-2.2,0.7c-0.7,0.2-1.3,0.9-1.8,1.3c-0.7,0.7-1.1,1.3-1.3,2.2s-0.4,1.8-0.4,3.1v11.5h-3.1
		v-20.8h1.8l1.1,3.3c0.7-1.3,1.8-2.2,2.9-2.9c1.1-0.7,2.2-1.1,3.8-1.1c1.8,0,3.1,0.4,4,1.1c1.1,0.7,1.8,1.8,2.2,3.1
		c0.7-1.3,1.8-2.2,2.9-3.1c1.1-0.9,2.7-1.1,4.2-1.1c2.2,0,3.8,0.7,5.1,1.8c1.1,1.3,1.8,3.1,1.8,5.5v14.4L437.2,1063.6L437.2,1063.6z
		"/>
	<path fill="#2D2D2D" d="M447.1,1042.4h2l1.1,3.1c0.7-1.1,1.8-2.2,3.1-2.9c1.1-0.7,2.7-1.1,4-1.1c1.6,0,2.9,0.2,4,0.9
		c1.1,0.7,2,1.3,2.9,2.4c0.7,1.1,1.3,2.2,1.8,3.5c0.2,1.3,0.7,2.7,0.7,4.2c0,1.6-0.2,3.1-0.7,4.4c-0.4,1.3-1.1,2.7-1.8,3.5
		c-0.7,1.1-1.8,1.8-2.9,2.2c-1.1,0.7-2.4,0.9-4,0.9c-1.3,0-2.7-0.2-3.8-0.9s-2.2-1.3-3.1-2.7v11.1h-3.1v-29.2h-0.2V1042.4z
		 M450,1052.6c0,1.3,0.2,2.7,0.2,3.5c0.2,1.1,0.7,2,1.1,2.9c0.7,0.7,1.1,1.3,2,1.8c0.9,0.4,1.8,0.7,3.1,0.7c2.2,0,3.8-0.7,4.7-2.2
		c1.1-1.6,1.6-3.5,1.6-6.2s-0.7-4.7-1.8-6.2c-1.1-1.3-2.7-2.2-4.7-2.2c-1.1,0-2,0.2-2.9,0.7c-0.9,0.4-1.6,1.1-2.2,1.8
		c-0.7,0.7-1.1,1.6-1.3,2.7C450.2,1050.3,450,1051.4,450,1052.6z"/>
	<path fill="#2D2D2D" d="M485,1060.3c-0.7,1.1-1.6,2-2.9,2.7c-1.3,0.7-2.7,1.1-4.4,1.1c-1.1,0-2-0.2-3.1-0.4
		c-0.9-0.2-1.8-0.7-2.2-1.3c-0.7-0.7-1.1-1.1-1.6-2c-0.4-0.9-0.7-1.8-0.7-2.7c0-1.8,0.4-3.1,1.3-4c0.9-0.9,2-1.6,3.5-2
		c1.3-0.4,3.1-0.7,4.7-0.9c1.8-0.2,3.5-0.2,5.1-0.2v-1.3c0-1.6-0.4-2.9-1.3-3.8c-0.9-0.9-2.2-1.3-3.8-1.3s-3.1,0.2-3.8,1.1
		c-0.9,0.7-1.3,1.6-1.6,2.9c-0.4,0-1.1-0.2-1.3-0.2c-0.4,0-1.1,0-1.3,0c0.2-2,1.1-3.5,2.7-4.7c1.3-1.1,3.5-1.6,6-1.6
		c2.7,0,4.7,0.7,6,2c1.3,1.3,2,3.3,2,6v13.7h-2.4L485,1060.3z M485,1052.8c-1.8,0-3.5,0.2-5.1,0.2c-1.3,0.2-2.7,0.2-3.5,0.7
		c-0.9,0.4-1.8,0.7-2.2,1.3c-0.4,0.7-0.7,1.3-0.7,2.4c0,1.3,0.4,2.2,1.1,2.9s1.8,1.1,3.3,1.1c1.1,0,2.2-0.2,3.1-0.7
		c0.9-0.2,1.6-0.9,2.2-1.3c0.7-0.7,1.1-1.3,1.3-2.2s0.4-1.8,0.4-2.7L485,1052.8L485,1052.8z"/>
	<path fill="#2D2D2D" d="M495.2,1042.4h1.8l1.1,3.5c0.9-1.3,1.8-2.2,3.1-3.1s2.7-1.1,4-1.1c2.4,0,4.2,0.7,5.5,2
		c1.1,1.3,1.8,3.3,1.8,5.8v14h-3.1v-13.5c0-1.8-0.4-3.3-1.1-4.2s-2-1.3-3.5-1.3c-1.1,0-2.2,0.2-3.1,0.7c-0.9,0.4-1.6,1.1-2,1.8
		c-0.4,0.9-0.9,1.8-1.1,2.7c-0.2,1.1-0.2,2.2-0.2,3.3v10.4h-3.1L495.2,1042.4L495.2,1042.4z"/>
	<path fill="#2D2D2D" d="M517.8,1071.2c0-0.4,0.2-0.9,0.2-1.3c0-0.4,0.2-0.9,0.2-1.3c0.2,0.2,0.7,0.2,1.1,0.2s0.9,0.2,1.3,0.2
		s1.1-0.2,1.6-0.4c0.4-0.2,0.7-0.7,1.1-1.1c0.4-0.7,0.7-1.1,0.9-1.8c0.2-0.7,0.7-1.6,1.1-2.7c-1.3-3.5-2.9-7.1-4.2-10.4
		s-2.9-7.1-4.4-10.4h3.5c1.1,2.9,2.2,6,3.5,8.6c1.1,2.9,2.2,5.8,3.5,8.6c1.1-2.9,2.2-6,3.3-8.6c1.1-2.9,2.2-5.8,3.3-8.6h3.3
		c-1.3,3.8-2.9,7.5-4.2,11.1c-1.3,3.8-3.1,7.5-4.4,11.1c-0.4,1.1-0.9,2-1.1,2.9c-0.4,0.9-0.9,1.6-1.3,2.2s-1.1,1.1-1.8,1.3
		c-0.7,0.2-1.6,0.4-2.7,0.4c-0.7,0-1.3,0-1.8-0.2C518.9,1071.2,518.2,1071.4,517.8,1071.2z"/>
</g>
<g>
	<path fill="#2D2D2D" d="M296.1,1071.8c-7.8,5.5-19,8.6-28.8,8.6c-13.5,0-25.9-4.9-35-13.1c-0.7-0.7-0.2-1.6,0.9-1.1
		c10,5.8,22.4,9.1,35.2,9.1c8.6,0,17.9-1.8,26.8-5.3C296.3,1069.6,297.4,1070.9,296.1,1071.8z"/>
	<path fill="#2D2D2D" d="M299.4,1068.3c-1.1-1.3-6.6-0.7-9.1-0.2c-0.7,0.2-0.9-0.7-0.2-1.1c4.4-3.1,11.7-2.2,12.6-1.1
		c0.9,1.1-0.2,8.2-4.4,11.5c-0.7,0.7-1.3,0.2-1.1-0.4C298.3,1074.5,300.3,1069.6,299.4,1068.3z"/>
	<path fill="#2D2D2D" d="M290.3,1045.5v-3.1c0-0.4,0.2-0.7,0.7-0.7h13.5c0.4,0,0.7,0.2,0.7,0.7v2.7c0,0.4-0.4,1.1-1.1,1.8l-7.1,9.7
		c2.7,0,5.5,0.2,7.8,1.6c0.7,0.2,0.7,0.7,0.7,1.1v3.1c0,0.4-0.4,0.9-1.1,0.7c-4.2-2.2-9.7-2.4-14.4,0c-0.4,0.2-1.1-0.2-1.1-0.7v-3.1
		c0-0.4,0-1.3,0.7-2l8.2-11.5H291C290.8,1046.1,290.3,1045.9,290.3,1045.5z"/>
	<path fill="#2D2D2D" d="M240.7,1064.1h-4.2c-0.4,0-0.7-0.2-0.7-0.7v-20.6c0-0.4,0.4-0.7,0.9-0.7h3.8c0.4,0,0.7,0.2,0.7,0.7v2.7h0.2
		c1.1-2.7,2.9-3.8,5.5-3.8c2.7,0,4.2,1.1,5.5,3.8c1.1-2.7,3.3-3.8,5.8-3.8c1.8,0,3.5,0.7,4.9,2.2c1.3,1.8,1.1,4.2,1.1,6.4v13.1
		c0,0.4-0.4,0.7-0.9,0.7h-4.2c-0.4,0-0.7-0.2-0.7-0.7v-11.1c0-0.9,0.2-3.1-0.2-3.8c-0.2-1.3-1.3-1.8-2.4-1.8c-1.1,0-2,0.7-2.4,1.8
		c-0.4,1.1-0.4,2.7-0.4,4v11.1c0,0.4-0.2,0.7-0.9,0.7h-4.2c-0.4,0-0.7-0.2-0.7-0.7v-11.1c0-2.2,0.4-5.8-2.7-5.8
		c-3.1,0-2.9,3.3-2.9,5.8v11.1C241.6,1063.6,241.2,1064.1,240.7,1064.1z"/>
	<path fill="#2D2D2D" d="M317.4,1041.3c6.2,0,9.5,5.1,9.5,11.5c0,6.2-3.8,11.3-9.5,11.3c-6,0-9.3-5.1-9.3-11.5
		C308.1,1046.4,311.4,1041.3,317.4,1041.3z M317.4,1045.7c-3.1,0-3.3,4-3.3,6.6s0,8,3.1,8c3.1,0,3.3-4.2,3.3-7.1
		c0-1.8-0.2-3.8-0.7-5.5C319.6,1046.1,318.7,1045.7,317.4,1045.7z"/>
	<path fill="#2D2D2D" d="M334.8,1064.1h-4.2c-0.4,0-0.7-0.2-0.7-0.7v-20.6c0-0.4,0.4-0.7,0.9-0.7h3.8c0.4,0,0.7,0.2,0.7,0.7v3.1h0.2
		c1.1-2.9,2.7-4.2,5.5-4.2c1.8,0,3.8,0.7,4.9,2.4s1.1,4.4,1.1,6.4v13.1c0,0.4-0.4,0.7-0.9,0.7h-4.2c-0.4,0-0.7-0.2-0.7-0.7v-11.1
		c0-2.2,0.2-5.5-2.7-5.5c-1.1,0-2,0.7-2.4,1.8c-0.7,1.3-0.7,2.7-0.7,3.8v11.1C335.5,1063.6,335.3,1064.1,334.8,1064.1z"/>
	<g>
		<path fill="#2D2D2D" d="M286.6,1059.9c-0.7-1.1-1.6-2-1.6-3.8v-6.2c0-2.7,0.2-5.1-1.8-6.9c-1.6-1.3-4.2-2-6.2-2
			c-4,0-8.4,1.6-9.3,6.2c0,0.7,0.4,0.7,0.7,0.9l4,0.4c0.4,0,0.4-0.2,0.7-0.7c0.2-1.8,1.8-2.4,3.3-2.4c0.9,0,1.8,0.4,2.2,1.1
			c0.9,0.7,0.7,1.8,0.7,2.9v0.7c-2.2,0.2-5.5,0.2-7.8,1.3c-2.7,1.1-4.4,3.3-4.4,6.6c0,4,2.7,6.2,6.2,6.2c3.1,0,4.7-0.7,6.9-2.9
			c0.9,1.1,1.1,1.6,2.4,2.7c0.4,0,0.9,0,1.1-0.2c0.9-0.7,2.4-2,2.9-2.9C286.8,1060.7,286.8,1060.3,286.6,1059.9z M279.7,1054.1
			c0,1.6,0,2.9-0.7,4.2c-0.7,1.1-1.8,1.8-2.9,1.8c-1.6,0-2.7-1.1-2.7-2.9c0-3.5,3.1-4,6.2-4V1054.1z"/>
	</g>
	<g>
		<path fill="#2D2D2D" d="M232.5,1059.9c-0.7-1.1-1.6-2-1.6-3.8v-6.2c0-2.7,0.2-5.1-1.8-6.9c-1.6-1.3-4.2-2-6.2-2
			c-4,0-8.4,1.6-9.3,6.2c0,0.7,0.4,0.7,0.7,0.9l4,0.4c0.4,0,0.4-0.2,0.7-0.7c0.2-1.8,1.8-2.4,3.3-2.4c0.9,0,1.6,0.4,2.2,1.1
			s0.4,1.8,0.4,2.9v0.7c-2.2,0.2-5.5,0.2-7.8,1.3c-2.7,1.1-4.4,3.3-4.4,6.6c0,4,2.7,6.2,6.2,6.2c3.1,0,4.7-0.7,6.9-2.9
			c0.9,1.1,1.1,1.6,2.4,2.7c0.4,0,0.9,0,1.1-0.2c0.9-0.7,2.4-2,3.1-2.9C232.8,1060.7,232.8,1060.3,232.5,1059.9z M225.2,1054.1
			c0,1.6,0,2.9-0.7,4.2c-0.7,1.1-1.8,1.8-2.9,1.8c-1.6,0-2.7-1.1-2.7-2.9c0-3.5,3.1-4,6.2-4V1054.1z"/>
	</g>
</g>
<path fill="#2D2D2D" d="M219.5,990.5v-45.2h14.8v44.7c0,10.9,9.1,13.5,14.2,13.5c11.1,0,14.8-6.6,14.8-10.4v-47.8h14.8v70.2h-8.6
	l-5.8-8c-4,4.9-10.6,9.3-20.4,9.3C229.2,1016.9,219.5,1007.6,219.5,990.5z"/>
<path fill="#2D2D2D" d="M387.8,920.6v95h8.4l5.5-8c4,4.9,10.6,9.5,20.4,9.5c13.1,0,24.1-8,24.1-25.7v-21.7
	c0-17.7-11.1-25.7-24.8-25.7c-9.5,0-15.9,4.2-19.3,8.4v-31.9L387.8,920.6L387.8,920.6z M417.9,1003.6c-9.1,0-15.7-4.4-15.5-14l0,0
	v-19.3c0-7.5,6-13.3,15.7-13.3c6.9,0,13.7,5.1,13.7,13.3v19.7C431.8,998.7,424.8,1003.6,417.9,1003.6z"/>
<path fill="#2D2D2D" d="M332.4,920.6v31.9c-3.3-4.2-9.7-8.4-19.3-8.4c-13.7,0-24.8,8-24.8,25.7v21.7c0,17.7,11.1,25.7,24.1,25.7
	c9.7,0,16.4-4.7,20.4-9.5l5.5,8h8.4v-95H332.4L332.4,920.6z M302.7,990.3v-19.7c0-8.2,6.9-13.3,13.7-13.3c9.7,0,15.7,5.5,15.7,13.3
	v19.3l0,0c0.2,9.5-6.4,14-15.5,14C309.8,1003.6,302.7,998.7,302.7,990.3z"/>
<path fill="#2D2D2D" d="M456.2,920.6H471v95h-14.8V920.6z"/>
<g>
	<rect x="360.1" y="945.4" fill="#2D2D2D" width="14.8" height="70.2"/>
	<circle fill="#2D2D2D" cx="367.6" cy="928.5" r="8.4"/>
</g>
<g>
	<path fill="#2D2D2D" d="M511.8,1003.6c-10.2,0-15.1-5.3-15.1-12.6v-5.8h43.8v-15.7c0-16.2-11.3-25.7-28.8-25.7
		c-18.2,0-29.9,10.2-29.9,26.1v21.7c0,16.2,11.7,25.7,29.9,25.7c13.5,0,23.5-5.5,27.5-14.8l-10.6-6.6
		C524.9,1001,519.5,1003.6,511.8,1003.6z M496.7,969.7c0-7.3,5.1-12.4,14.6-12.4c9.5,0,14.6,5.1,14.6,12.4v4.4h-29L496.7,969.7
		L496.7,969.7z"/>
</g>
<path fill="#2D2D2D" d="M181.4,943.8c-14.4,0-23.7,5.8-27.2,14.4l11.5,7.1c4.9-7.8,9.5-8.2,15.7-8.2c9.1,0,13.1,4.2,13.1,11.1v5.5
	H182c-9.1,0-31.4,3.1-31.4,22.4c0,13.7,10.4,20.6,23,20.6c10,0,17.3-4.7,21.5-9.5l5.8,8h8.6v-48.1
	C209.3,953.8,200,943.8,181.4,943.8z M194.4,993.2c-0.2,1.1-0.2,2.4-1.6,4.2c-2.2,3.1-8,6.2-14.6,6.2c-7.1,0-12.2-2.9-12.2-8.6
	c0-8.4,13.5-10.2,22.1-10.6h6.4L194.4,993.2L194.4,993.2z"/>
<path fill="#2D2D2D" d="M448.9,968.8"/>
</svg>
