<?xml version="1.0" encoding="UTF-8"?>
<svg width="144px" height="36px" viewBox="0 0 144 36" version="1.1" xmlns="http://www.w3.org/2000/svg" xmlns:xlink="http://www.w3.org/1999/xlink">
    <!-- Generator: Sketch 52.2 (67145) - http://www.bohemiancoding.com/sketch -->
    <title>Group</title>
    <desc>Created with Sketch.</desc>
    <g id="Page-1" stroke="none" stroke-width="1" fill="none" fill-rule="evenodd">
        <g id="homepage-copy" transform="translate(-27.000000, -21.000000)" fill="#000000" fill-rule="nonzero">
            <g id="Group" transform="translate(27.000000, 21.000000)">
                <polygon id="Fill-1" points="56.0919947 10.998049 58.1542013 10.998049 58.1542013 8.84132081 56.0919947 8.84132081"></polygon>
                <polyline id="Fill-2" points="56.0919947 22.0873871 58.1542013 22.0873871 58.1542013 13.1416711 56.0919947 13.4070283 56.0919947 22.0873871"></polyline>
                <path d="M71.036426,13.0230349 C69.9194046,13.0230349 68.9773094,13.5346856 68.4255795,14.4337337 C67.9205423,13.472559 67.0048834,13.0046522 65.6324252,13.0046522 C64.7605407,13.0046522 63.9858185,13.3382635 63.425162,13.9498272 L63.425162,13.1413307 L61.3818386,13.4070283 L61.3818386,22.0873871 L63.4440451,22.0873871 L63.4440451,16.4348902 C63.4440451,15.2344006 64.1969659,14.3957769 65.2748478,14.3957769 C66.2897288,14.3957769 66.8042076,15.0820628 66.8042076,16.4348902 L66.8042076,22.0873871 L68.8664141,22.0873871 L68.8664141,16.4348902 C68.8664141,15.2454642 69.6114384,14.4145 70.6783336,14.4145 C71.9582648,14.4145 72.2269198,15.5133744 72.2269198,16.4348902 L72.2269198,22.0873871 L74.289298,22.0873871 L74.289298,16.6403334 C74.289298,14.2065036 73.2251493,13.0230349 71.036426,13.0230349" id="Fill-3"></path>
                <path d="M78.9148002,16.4954849 C79.1638852,15.0114257 79.8814431,14.2279501 80.9941732,14.2279501 C82.03961,14.2279501 82.7542496,15.0939774 82.8740719,16.4954849 L78.9148002,16.4954849 Z M80.9941732,12.9483128 C78.806823,12.9483128 76.5926935,14.5178173 76.5926935,17.5179351 C76.5926935,20.5194145 78.2451362,22.3113832 81.0127129,22.3113832 C83.0828156,22.3113832 84.3924451,20.9903851 84.7328561,19.7650448 L84.9115585,19.1665872 L83.4719793,18.8899962 L83.4494915,18.9688034 C83.0690827,20.3068225 82.2720438,20.9573644 81.0127129,20.9573644 C79.9820386,20.9573644 78.8806391,20.1715057 78.8806391,17.9660975 L78.8806391,17.8495038 L84.6926866,17.8495038 L84.981083,17.659039 L84.981083,17.2924072 C84.9242616,14.5721143 83.4338701,12.9483128 80.9941732,12.9483128 Z" id="Fill-4"></path>
                <path d="M115.355584,17.3128323 L115.355584,17.9472042 C115.355584,19.9122762 114.584982,20.9948105 113.185916,20.9948105 C111.774833,20.9948105 110.997536,19.9122762 110.997536,17.9472042 L110.997536,17.3128323 C110.997536,15.3477603 111.774833,14.2650558 113.185916,14.2650558 C114.584982,14.2650558 115.355584,15.3477603 115.355584,17.3128323 Z M113.185916,12.9483128 C110.591893,12.9483128 108.709247,14.9016404 108.709247,17.5926572 C108.709247,20.4591603 110.466405,22.3113832 113.185916,22.3113832 C115.810839,22.3113832 117.643873,20.3708214 117.643873,17.5926572 C117.643873,14.8146632 115.85221,12.9483128 113.185916,12.9483128 Z" id="Fill-5"></path>
                <path d="M124.405912,13.0046522 C123.52493,13.0046522 122.7133,13.3535823 122.142172,13.9704226 L122.142172,13.1413307 L120.098676,13.4070283 L120.098676,22.0873871 L122.161055,22.0873871 L122.161055,16.4348902 C122.161055,15.2725276 122.98041,14.3957769 124.066875,14.3957769 C125.119007,14.3957769 125.746956,15.1581465 125.746956,16.4348902 L125.746956,22.0873871 L127.790623,22.0873871 L127.790623,16.6403334 C127.790623,14.2279501 126.6518,13.0046522 124.405912,13.0046522" id="Fill-6"></path>
                <polyline id="Fill-7" points="130.942041 22.0873871 133.00442 22.0873871 133.00442 13.1416711 130.942041 13.4070283 130.942041 22.0873871"></polyline>
                <polygon id="Fill-8" points="130.942041 10.998049 133.00442 10.998049 133.00442 8.84132081 130.942041 8.84132081"></polygon>
                <path d="M93.8944227,17.9848206 C93.8944227,19.9095528 93.1724014,21.0133634 91.9132414,21.0133634 C90.3861133,21.0133634 89.5425537,19.3955193 89.4987796,17.7965686 L89.4987796,17.5019354 C89.5499354,15.7480937 90.6669571,14.3213952 91.9886026,14.3213952 C93.2177205,14.3213952 93.8944227,15.3838447 93.8944227,17.3128323 L93.8944227,17.9848206 Z M92.2522792,12.9483128 C91.0779216,12.9483128 90.0233862,13.5700892 89.4800682,14.2495667 L89.4800682,13.1413307 L87.4364014,13.4070283 L87.4364014,26.5654365 L89.4987796,25.3846912 L89.4987796,21.3382939 C90.0498229,21.9439003 91.0118307,22.3113832 92.0825027,22.3113832 C94.4967935,22.3113832 96.1828828,20.3937997 96.1828828,17.648486 C96.1828828,14.6613042 94.7499991,12.9483128 92.2522792,12.9483128 Z" id="Fill-9"></path>
                <path d="M43.6305198,17.9848206 C43.6305198,19.9095528 42.9083269,21.0133634 41.6488239,21.0133634 C40.1218675,21.0133634 39.2788229,19.3955193 39.234705,17.7965686 L39.234705,17.5019354 C39.2860327,15.7480937 40.4032258,14.3213952 41.7243564,14.3213952 C42.9534747,14.3213952 43.6305198,15.3838447 43.6305198,17.3128323 L43.6305198,17.9848206 Z M41.9880332,12.9483128 C40.8138474,12.9483128 39.7594836,13.5700892 39.215822,14.2495667 L39.215822,13.1413307 L37.1724985,13.4070283 L37.1724985,26.5584579 L39.234705,25.3778828 L39.234705,21.3386343 C39.7857483,21.9439003 40.7475849,22.3113832 41.8187719,22.3113832 C44.2327191,22.3113832 45.9184653,20.3937997 45.9184653,17.648486 C45.9184653,14.6613042 44.4859244,12.9483128 41.9880332,12.9483128 Z" id="Fill-10"></path>
                <path d="M51.7766906,14.6012201 C52.3917648,14.6012201 52.703851,15.0110853 52.703851,15.818901 L52.703851,16.6306314 L54.4848709,15.6110748 C54.4958574,15.4910769 54.5025523,15.3770363 54.5025523,15.2778041 C54.5025523,13.9278702 53.6462895,13.1537561 52.1533227,13.1537561 C51.4714709,13.1537561 50.8521052,13.4509423 50.4169354,13.9780821 L50.4169354,13.1413307 L48.3734404,13.4070283 L48.3734404,22.0873871 L50.4356469,22.0873871 L50.4356469,16.3419556 C50.4356469,15.3171225 50.9872052,14.6012201 51.7766906,14.6012201" id="Fill-11"></path>
                <path d="M142.072257,18.8425077 L142.05303,18.9136554 C141.688587,20.2504831 140.917642,20.9573644 139.823623,20.9573644 C138.30731,20.9573644 137.76691,19.4023277 137.76691,17.9472042 L137.76691,17.2752159 C137.76691,15.0286169 138.858696,14.2279501 139.880101,14.2279501 C141.127072,14.2279501 141.993463,15.1700613 142.087535,16.6275677 L142.094059,16.7269702 L143.557156,16.4708045 L143.471152,15.788944 C143.241293,14.0899099 141.798109,12.9483128 139.880101,12.9483128 C137.328135,12.9483128 135.403604,14.912704 135.403604,17.5179351 C135.403604,20.4744792 137.090208,22.3113832 139.804912,22.3113832 C141.832785,22.3113832 142.958562,20.9961722 143.336567,19.7650448 L143.38738,19.5953456 L142.072257,18.8425077" id="Fill-12"></path>
                <path d="M102.944922,13.0046522 C102.078531,13.0046522 101.273424,13.348476 100.699721,13.9557846 L100.699721,8.67843006 L98.6375149,9.85917537 L98.6375149,22.0873871 L100.699721,22.0873871 L100.699721,16.4348902 C100.699721,15.2725276 101.511008,14.3957769 102.587002,14.3957769 C103.654584,14.3957769 104.267083,15.139083 104.267083,16.4348902 L104.267083,22.0873871 L106.329633,22.0873871 L106.329633,16.6403334 C106.329633,14.2279501 105.190981,13.0046522 102.944922,13.0046522" id="Fill-13"></path>
                <path d="M13.9315183,17.6215928 L4.38078794,29.6128726 L11.404444,17.6215928 L13.9315183,17.6215928 Z M12.7856572,15.2635064 L15.5025924,15.6492018 L14.5764621,16.8117347 L11.8787532,16.8117347 L12.7856572,15.2635064 Z M13.9658511,13.2483927 L16.7784036,14.0471873 L16.0884837,14.9137253 L13.2285518,14.5074345 L13.9658511,13.2483927 Z M14.9858821,11.5071465 L17.8348274,12.7210827 L17.3263569,13.3598801 L14.3890044,12.5255117 L14.9858821,11.5071465 Z M15.8752762,9.98870496 L18.7228482,11.6060384 L18.359091,12.0627113 L15.3990788,10.8016269 L15.8752762,9.98870496 Z M21.3252832,15.6573719 L21.5826084,15.4119294 L23.5691109,15.9760046 L21.3252832,15.6573719 Z M20.1138463,16.8117347 L20.577169,16.3700403 L23.6867011,16.8117347 L20.1138463,16.8117347 Z M7.11712127,30.4358369 L24.5196176,17.6215928 L29.4632141,17.6215928 L7.11712127,30.4358369 Z M19.2641067,17.6215928 L23.1481893,17.6215928 L6.06773572,30.1989049 L19.2641067,17.6215928 Z M18.0851143,17.6215928 L5.16460839,29.9359308 L14.9726639,17.6215928 L18.0851143,17.6215928 Z M19.5513015,16.2243407 L18.934854,16.8117347 L15.617951,16.8117347 L16.4378211,15.7821356 L19.5513015,16.2243407 Z M20.6743311,15.1538913 L20.2990724,15.5116723 L17.0237123,15.0464889 L17.6274566,14.2883745 L20.6743311,15.1538913 Z M21.5611503,14.3087997 L21.3558395,14.5043708 L18.1750665,13.6008972 L18.6121246,13.0521408 L21.5611503,14.3087997 Z M22.2004292,13.6994487 L19.1365599,12.3939395 L19.4395478,12.0135207 L22.2780216,13.625918 L22.2004292,13.6994487 Z M23.3486935,15.0703183 L22.2641167,14.7622386 L22.3758704,14.6558574 L23.3486935,15.0703183 Z M23.0283674,14.0519531 L23.0151493,14.0465064 L23.0163509,14.0451447 L23.0283674,14.0519531 Z M31.0260484,17.6612518 L0.00694622009,0.0406235488 L0.00694622009,0.974224255 L15.1666449,9.58598866 L14.643068,10.4794198 L0.00694622009,4.24361392 L0.00694622009,5.12530063 L14.230043,11.1852798 L13.5794342,12.2955583 L0.00694622009,8.44064698 L0.00694622009,9.28369604 L13.1561094,13.0182691 L12.3563241,14.3835218 L0.00694622009,12.6296801 L0.00694622009,13.4485594 L11.9134295,15.1395937 L10.9339114,16.8117347 L0.00694622009,16.8117347 L0.00694622009,17.6215928 L10.4596022,17.6215928 L0.0215377086,35.4401751 L31.0260484,17.6612518 Z" id="Fill-14"></path>
            </g>
        </g>
    </g>
</svg>